<svg xmlns="http://www.w3.org/2000/svg" viewBox="0 0 32 32" width="32" height="32">
  <defs>
    <linearGradient id="bgGradient" x1="0%" y1="0%" x2="100%" y2="100%">
      <stop offset="0%" style="stop-color:#3B82F6;stop-opacity:1" />
      <stop offset="50%" style="stop-color:#2563EB;stop-opacity:1" />
      <stop offset="100%" style="stop-color:#1E40AF;stop-opacity:1" />
    </linearGradient>
    <filter id="shadow" x="-20%" y="-20%" width="140%" height="140%">
      <feDropShadow dx="0" dy="1" stdDeviation="1" flood-color="#1E40AF" flood-opacity="0.3"/>
    </filter>
  </defs>
  
  <!-- Background circle with shadow -->
  <circle cx="16" cy="16" r="15" fill="url(#bgGradient)" filter="url(#shadow)"/>
  
  <!-- Pen body -->
  <path d="M8 18 L12 14 L16 18 L20 14 L24 18 L22 20 L18 16 L14 20 L10 16 L8 18 Z" 
        fill="white" stroke="#E5E7EB" stroke-width="0.5"/>
  
  <!-- Pen tip -->
  <path d="M24 18 L26 16 L28 18 L26 20 Z" fill="white"/>
  
  <!-- Writing lines with varying opacity -->
  <line x1="10" y1="22" x2="22" y2="22" stroke="white" stroke-width="1.5" opacity="0.9"/>
  <line x1="10" y1="24" x2="20" y2="24" stroke="white" stroke-width="1.5" opacity="0.7"/>
  <line x1="10" y1="26" x2="18" y2="26" stroke="white" stroke-width="1.5" opacity="0.5"/>
  
  <!-- Small decorative dots -->
  <circle cx="12" cy="28" r="0.8" fill="white" opacity="0.6"/>
  <circle cx="16" cy="28" r="0.8" fill="white" opacity="0.4"/>
  <circle cx="20" cy="28" r="0.8" fill="white" opacity="0.6"/>
</svg> 